<?xml version="1.0" ?>
<!-- Uploaded to: SVG Repo, www.svgrepo.com, Generator: SVG Repo Mixer Tools -->
<svg fill="#000000" width="800px" height="800px" viewBox="0 0 64 64" id="Layer_1_1_" version="1.1" xml:space="preserve" xmlns="http://www.w3.org/2000/svg" xmlns:xlink="http://www.w3.org/1999/xlink">
<g>
<rect height="2" width="2" x="61" y="61"/>
<rect height="2" width="2" x="1" y="61"/>
<path d="M39,1c-5.571,0-10.377,3.278-12.63,8H19v8h2v4H7c-1.103,0-2,0.897-2,2v2c0,1.103,0.897,2,2,2v34H5v2h54v-2h-2V17h2V9h-7.37   C49.377,4.278,44.571,1,39,1z M51,15c0,4.015-1.989,7.567-5.026,9.746C45.843,23.212,44.567,22,43,22c-1.103,0-2-0.897-2-2   s0.897-2,2-2c1.615,0,3.067-0.897,3.789-2.342L47,15.236C47.381,14.474,48.147,14,49,14c0.696,0,1.369,0.195,1.977,0.55   C50.983,14.7,51,14.848,51,15z M47.896,6.975C47.828,6.979,47.76,7,47.692,7c-2.047,0-3.861,1.229-4.621,3.129   C42.617,11.266,41.532,12,40.308,12h-3.923C35.621,12,35,11.379,35,10.615c0-0.569,0.342-1.075,0.87-1.286l0.877-0.351   C38.724,8.188,40,6.303,40,4.174c0-0.382,0.077-0.753,0.218-1.112C43.257,3.369,45.954,4.824,47.896,6.975z M38.141,3.044   C38.055,3.416,38,3.794,38,4.174c0,1.306-0.783,2.463-1.995,2.947l-0.877,0.351C33.835,7.989,33,9.223,33,10.615   C33,12.481,34.519,14,36.385,14h3.923c2.047,0,3.861-1.229,4.621-3.129C45.383,9.734,46.468,9,47.692,9   c0.519,0,1.031-0.089,1.534-0.247c0.656,1.069,1.149,2.246,1.444,3.501C50.13,12.094,49.571,12,49,12   c-1.615,0-3.067,0.897-3.789,2.342L45,14.764C44.619,15.526,43.853,16,43,16c-2.206,0-4,1.794-4,4s1.794,4,4,4c0.552,0,1,0.448,1,1   c0,0.278,0.027,0.564,0.075,0.858C42.531,26.583,40.815,27,39,27c-1.41,0-2.758-0.257-4.016-0.706   c0.062-0.086,0.135-0.171,0.193-0.257C36.369,24.247,37,22.166,37,20.017v-1.062C37,17.325,35.675,16,34.045,16   C32.366,16,31,14.634,31,12.955c0-0.777-0.184-1.558-0.532-2.257l-0.337-0.674c-0.294-0.587-0.685-1.136-1.12-1.662   C31.014,5.358,34.335,3.315,38.141,3.044z M27.963,10.295c0.133,0.206,0.271,0.41,0.379,0.624l0.336,0.673   C28.889,12.014,29,12.485,29,12.955C29,15.737,31.263,18,34.045,18C34.571,18,35,18.429,35,18.955v1.062   c0,1.753-0.515,3.451-1.488,4.912c-0.115,0.173-0.245,0.346-0.392,0.521C29.472,23.389,27,19.481,27,15   C27,13.331,27.344,11.741,27.963,10.295z M21,11h4.59C25.21,12.269,25,13.61,25,15h-4V11z M21,35h-8v-4h8V35z M13,37h8v4h-8V37z    M13,43h8v4h-8V43z M13,49h8v4h-8V49z M7,23h14v2H7V23z M9,27h12v2H11v26h10v6H9V27z M47,61h-7V45h7V61z M38,61h-7V45h7V61z M55,61   h-6V43H29v18h-6V17h2.16c0.976,6.773,6.801,12,13.84,12s12.865-5.227,13.84-12H55V61z M57,11v4h-4c0-1.39-0.21-2.731-0.59-4H57z"/>
<path d="M26,31v10h26V31H26z M50,35h-4v-2h4V35z M38,37v2h-4v-2H38z M34,35v-2h4v2H34z M40,37h4v2h-4V37z M40,35v-2h4v2H40z M32,33   v2h-4v-2H32z M28,37h4v2h-4V37z M46,39v-2h4v2H46z"/>
<rect height="2" width="2" x="42" y="51"/>
<rect height="2" width="2" x="34" y="51"/>
</g>
</svg>